<svg xmlns="http://www.w3.org/2000/svg" viewBox="0 0 109.86 80.55"><defs><style>.cls-1{fill:#f37121;}</style></defs><g id="Layer_2" data-name="Layer 2"><g id="Layer_1-2" data-name="Layer 1"><path class="cls-1" d="M57.17,34.26l-5.84-7.32L34.48,48.07h41l-14.35-19ZM72.64,46.67H37.37l14-17.5,5.87,7.36,3.89-5.15Z"/><path class="cls-1" d="M109.86,11.28c-.1-2.27-3.09-5.49-16.44-8.13C83.13,1.12,69.46,0,54.93,0S26.73,1.12,16.45,3.15C3.1,5.79.11,9,0,11.28H0V69H0a.62.62,0,0,0,0,.13c0,2.28,2.85,5.57,16.45,8.25,10.28,2,24,3.16,38.48,3.16s28.2-1.12,38.49-3.16c13.59-2.68,16.44-6,16.44-8.25V69h0V11.28ZM1.39,14.13C6.44,18.85,23.87,21,30.67,21.69V58.86c-6.8.67-24.23,2.83-29.28,7.56ZM93.15,76C83,78,69.37,79.15,54.93,79.15S26.92,78,16.72,76C2.5,73.22,1.39,70,1.39,69.14c0-1.67,2.93-3.53,8-5.11a116.62,116.62,0,0,1,22-3.85l.63-.06V20.43l-.63-.06a116.51,116.51,0,0,1-22-3.86c-5.11-1.57-8-3.43-8-5.1,0-.91,1.11-4.09,15.33-6.89,10.2-2,23.77-3.13,38.21-3.13S83,2.5,93.15,4.52c14.21,2.8,15.32,6,15.32,6.89,0,1.67-2.93,3.53-8,5.1a116.36,116.36,0,0,1-22,3.86l-.63.06V60.12l.63.06a116.47,116.47,0,0,1,22,3.85c5.11,1.58,8,3.44,8,5.11C108.47,70,107.36,73.22,93.15,76Zm15.32-61.9V66.42c-5-4.73-22.48-6.89-29.28-7.56V21.69C86,21,103.42,18.85,108.47,14.13Z"/></g></g></svg>