<svg xmlns="http://www.w3.org/2000/svg" viewBox="0 0 156.68 89.03"><defs><style>.cls-1{fill:#1a1a1a;}.cls-2{fill:#231f20;}</style></defs><g id="Layer_2" data-name="Layer 2"><g id="Layer_1-2" data-name="Layer 1"><path class="cls-1" d="M36.74,47.2A43.34,43.34,0,0,0,.12,67.54a.81.81,0,0,0,0,.85c.54.85,1.11,1.69,1.7,2.49a.79.79,0,0,0,1.09.29.8.8,0,0,0,.29-1.09.76.76,0,0,0-.11-.14c-.46-.64-.89-1.29-1.32-2a41.46,41.46,0,0,1,69.94,0A41.46,41.46,0,0,1,7,74.53a.8.8,0,0,0-1.27,1l.12.12a43.07,43.07,0,0,0,67.52-7.24.81.81,0,0,0,0-.85A43.34,43.34,0,0,0,36.74,47.2Zm0,8.78a12,12,0,1,0,12,12A12,12,0,0,0,36.74,56Zm0,1.6A10.39,10.39,0,1,1,26.36,68,10.37,10.37,0,0,1,36.74,57.58Z"/><path class="cls-2" d="M89.86,73.48a9.81,9.81,0,0,1-6.07-1.67,5.42,5.42,0,0,1-2-4.45,5.94,5.94,0,0,1,1.83-4.17c1.48-1.36,3.69-1.9,6.56-1.59A17.86,17.86,0,0,0,93,61.35a.67.67,0,0,1,.79.5.66.66,0,0,1-.5.79,17.89,17.89,0,0,1-3.14.27c-2.54-.27-4.39.15-5.58,1.24a4.65,4.65,0,0,0-1.42,3.19,4.14,4.14,0,0,0,1.46,3.44c2.83,2.28,8.76,1,8.82,1a.66.66,0,0,1,.28,1.28A19.89,19.89,0,0,1,89.86,73.48Z"/><path class="cls-2" d="M98.65,60.53a.64.64,0,0,1-.56-.32.65.65,0,0,1,.22-.9c.41-.25,9.92-6.13,6.52-16.93C101.5,31.82,92,31.52,91.93,31.52h-.15c-3.6-.15-15.43.5-16.46,15a.63.63,0,0,1-.7.61.65.65,0,0,1-.61-.7C74.89,34,83.79,29.88,91.84,30.2c.2,0,10.58.14,14.25,11.78,3.71,11.81-7,18.39-7.1,18.46A.69.69,0,0,1,98.65,60.53Z"/><path class="cls-2" d="M88.61,89a12.84,12.84,0,0,1-7.74-2.8.66.66,0,0,1,.86-1,11.71,11.71,0,0,0,6.88,2.48,14.88,14.88,0,0,0,7.82-2.2c.08-.05,8-5.22,6.17-16.09l-.08-.47.42-.22c.13-.07,13.49-7.33,12.92-22.79s-12.44-21.4-12.56-21.46a30.58,30.58,0,0,0-13.08-3.59A27.18,27.18,0,0,0,72,28.45c-4.74,4.65-7.14,10.72-7.14,18.07a.66.66,0,0,1-1.32,0c0-7.71,2.54-14.11,7.53-19a28.5,28.5,0,0,1,19.17-7.94,31.28,31.28,0,0,1,13.68,3.75c.08,0,12.65,6.29,13.25,22.58.55,14.71-10.87,22.35-13.2,23.76a17.43,17.43,0,0,1-6.83,17A16.28,16.28,0,0,1,88.61,89Z"/><path class="cls-2" d="M120.3,19.36a.66.66,0,0,1-.47-1.13l18-18a.67.67,0,0,1,.93,0,.66.66,0,0,1,0,.94l-18,18A.65.65,0,0,1,120.3,19.36Z"/><path class="cls-2" d="M156,44H130.51a.66.66,0,1,1,0-1.31H156A.66.66,0,1,1,156,44Z"/><path class="cls-2" d="M139.54,87.11a.66.66,0,0,1-.47-.19L120.63,68.48a.66.66,0,0,1,.93-.93L140,86a.67.67,0,0,1,0,.93A.66.66,0,0,1,139.54,87.11Z"/></g></g></svg>