<svg xmlns="http://www.w3.org/2000/svg" viewBox="0 0 131.7 103.06"><defs><style>.cls-1{fill:#f37121;}</style></defs><g id="Layer_2" data-name="Layer 2"><g id="Layer_1-2" data-name="Layer 1"><path class="cls-1" d="M16.41,90.22a.63.63,0,0,1-.63-.63V.62A.63.63,0,0,1,16.41,0H131.08a.62.62,0,0,1,.62.62V88.45a.63.63,0,1,1-1.25,0V1.25H17V89.59A.63.63,0,0,1,16.41,90.22Z"/><path class="cls-1" d="M131.08,103.06H.62a.63.63,0,0,1-.62-.63V16.3a.62.62,0,0,1,.62-.62H16.41a.63.63,0,0,1,0,1.25H1.25v84.88H131.08a.63.63,0,0,1,0,1.25Z"/><path class="cls-1" d="M70.5,53.7h-37a.63.63,0,0,1-.63-.62V18.13a.63.63,0,0,1,.63-.63h37a.63.63,0,0,1,.62.63v35A.62.62,0,0,1,70.5,53.7ZM34.15,52.45H69.87V18.75H34.15Z"/><path class="cls-1" d="M115.79,18.75H87a.63.63,0,1,1,0-1.25h28.84a.63.63,0,0,1,0,1.25Z"/><path class="cls-1" d="M116.25,36.21H87.41a.63.63,0,0,1,0-1.25h28.84a.63.63,0,0,1,0,1.25Z"/><path class="cls-1" d="M116.5,53.88H87.66a.63.63,0,1,1,0-1.26H116.5a.63.63,0,0,1,0,1.26Z"/><path class="cls-1" d="M115.4,71.12h-84a.63.63,0,1,1,0-1.25h84a.63.63,0,0,1,0,1.25Z"/><path class="cls-1" d="M115.4,89.08h-84a.63.63,0,1,1,0-1.25h84a.63.63,0,0,1,0,1.25Z"/></g></g></svg>