<svg xmlns="http://www.w3.org/2000/svg" viewBox="0 0 157.06 88.45"><defs><style>.cls-1{fill:#f37121;}</style></defs><g id="Layer_2" data-name="Layer 2"><g id="Layer_1-2" data-name="Layer 1"><path class="cls-1" d="M90.66,73a9.77,9.77,0,0,1-6-1.66,5.4,5.4,0,0,1-1.94-4.43,5.86,5.86,0,0,1,1.82-4.14C86,61.43,88.17,60.9,91,61.2A17.25,17.25,0,0,0,93.79,61a.66.66,0,1,1,.28,1.28,18.66,18.66,0,0,1-3.12.27c-2.52-.27-4.36.15-5.54,1.22A4.64,4.64,0,0,0,84,66.91a4.11,4.11,0,0,0,1.45,3.42c2.81,2.26,8.7,1,8.76,1a.67.67,0,0,1,.78.51.66.66,0,0,1-.5.78A21.11,21.11,0,0,1,90.66,73Z"/><path class="cls-1" d="M99.4,60.14a.65.65,0,0,1-.34-1.21c.41-.25,9.86-6.09,6.48-16.83-3.31-10.48-12.72-10.78-12.82-10.78h-.15c-3.58-.15-15.33.49-16.35,14.94a.66.66,0,0,1-1.31-.09C75.79,33.76,84.64,29.69,92.63,30c.2,0,10.51.14,14.16,11.7,3.69,11.73-7,18.27-7.05,18.34A.72.72,0,0,1,99.4,60.14Z"/><path class="cls-1" d="M89.43,88.45a12.8,12.8,0,0,1-7.7-2.77.66.66,0,0,1,.86-1,11.54,11.54,0,0,0,6.84,2.46A14.72,14.72,0,0,0,97.19,85c.08,0,7.93-5.18,6.13-16l-.08-.47.42-.22c.13-.07,13.4-7.28,12.83-22.64S104.14,24.38,104,24.33a30.18,30.18,0,0,0-13-3.57,27,27,0,0,0-18.1,7.51c-4.71,4.61-7.09,10.65-7.09,18a.66.66,0,0,1-.66.65.65.65,0,0,1-.65-.65c0-7.66,2.51-14,7.48-18.89a28.26,28.26,0,0,1,19-7.88,30.85,30.85,0,0,1,13.58,3.72A26.31,26.31,0,0,1,117.8,45.6c.54,14.62-10.8,22.21-13.12,23.61a17.27,17.27,0,0,1-6.79,16.86A16.07,16.07,0,0,1,89.43,88.45Z"/><path class="cls-1" d="M120.9,19.24a.66.66,0,0,1-.46-1.12L138.37.19a.65.65,0,0,1,.92.93L121.37,19A.67.67,0,0,1,120.9,19.24Z"/><path class="cls-1" d="M156.4,43.73H131.05a.65.65,0,0,1-.65-.65.66.66,0,0,1,.65-.66H156.4a.66.66,0,0,1,.66.66A.65.65,0,0,1,156.4,43.73Z"/><path class="cls-1" d="M140,86.55a.66.66,0,0,1-.47-.19L121.24,68a.65.65,0,1,1,.92-.93l18.33,18.32a.67.67,0,0,1,0,.93A.65.65,0,0,1,140,86.55Z"/><path class="cls-1" d="M31.84,88h0a.5.5,0,0,1-.49-.44L25.76,42.44,20,80.06a.48.48,0,0,1-.5.42A.5.5,0,0,1,19,80L15.84,53.37l-4,16.18a.5.5,0,0,1-1,0L9,60.14l-2.35,4.6a.51.51,0,0,1-.45.28H.5a.5.5,0,0,1-.5-.5A.5.5,0,0,1,.5,64H5.91L8.78,58.4a.5.5,0,0,1,.51-.27.51.51,0,0,1,.43.4l1.7,8.6,4.1-16.66a.49.49,0,0,1,.52-.38.5.5,0,0,1,.47.44l3.08,25.74L25.31,38.7a.51.51,0,0,1,.5-.42h0a.5.5,0,0,1,.49.44L31.91,84l5.21-32a.49.49,0,0,1,.48-.41.53.53,0,0,1,.51.39L42.64,73.3l6-28.59a.5.5,0,0,1,.49-.4h0a.5.5,0,0,1,.48.42l5.49,35.15L59,57.29a.51.51,0,0,1,.46-.42.52.52,0,0,1,.51.34l2.15,6.44h5.16a.5.5,0,0,1,.5.5.5.5,0,0,1-.5.5H61.74a.5.5,0,0,1-.48-.34l-1.63-4.88-4,23.65a.5.5,0,0,1-.49.42h0a.5.5,0,0,1-.49-.42L49.1,47.58l-6,28.24a.49.49,0,0,1-.49.39h0a.5.5,0,0,1-.49-.39l-4.47-21L32.33,87.6A.5.5,0,0,1,31.84,88Z"/></g></g></svg>