<svg xmlns="http://www.w3.org/2000/svg" viewBox="0 0 113.27 121.51"><defs><style>.cls-1{fill:#231f20;}</style></defs><g id="Layer_2" data-name="Layer 2"><g id="Layer_1-2" data-name="Layer 1"><path class="cls-1" d="M58.09,31.23a28.65,28.65,0,0,0-4.38-.37A29,29,0,0,0,27.42,47.79a70.53,70.53,0,0,1,4.92-16.33C40.5,13.14,55.43,3,76.69,1.42a.71.71,0,0,0,.65-.76A.71.71,0,0,0,76.58,0C55.07,1.64,39.32,12.32,31,30.88A75.82,75.82,0,0,0,25,56.73a28.24,28.24,0,0,0-.17,3.06,28.84,28.84,0,0,0,9.78,21.62c-15-7.72-38.57-25.49-32-59.25A.7.7,0,0,0,2,21.33a.72.72,0,0,0-.83.56C-8.5,71.63,45.29,87.49,45.83,87.65a.69.69,0,0,0,.2,0s0,0,0,0A28.74,28.74,0,0,0,79.94,71.93c-3.09,16.3-13.59,45.52-49.08,48.17a.71.71,0,0,0,.05,1.41H31c50.52-3.77,51.67-59.84,51.68-60.4a.64.64,0,0,0-.06-.28c0-.35.06-.69.06-1A28.93,28.93,0,0,0,67.91,34.61c16.25,4.27,43.46,16.59,44,51.36a.7.7,0,0,0,.7.69h0a.69.69,0,0,0,.7-.71C112.64,40.76,68.12,32.51,58.09,31.23ZM81.23,59.79a27.5,27.5,0,0,1-55,.62h0c0-.6,0-1.83.1-3.52A27.53,27.53,0,0,1,53.71,32.28c.73,0,1.44,0,2.14.1l.17,0c.06,0,.77.06,1.95.21A27.53,27.53,0,0,1,81.23,59.79Z"/><path class="cls-1" d="M40.84,59.79A12.87,12.87,0,1,0,53.71,46.92,12.89,12.89,0,0,0,40.84,59.79Zm24.33,0A11.46,11.46,0,1,1,53.71,48.34,11.46,11.46,0,0,1,65.17,59.79Z"/><circle class="cls-1" cx="53.71" cy="59.79" r="2.3"/></g></g></svg>