<svg xmlns="http://www.w3.org/2000/svg" viewBox="0 0 156.96 88.45"><defs><style>.cls-1{fill:#231f20;}.cls-2{fill:none;stroke:#1a1a1a;stroke-linecap:round;stroke-linejoin:round;stroke-width:0.8px;}</style></defs><g id="Layer_2" data-name="Layer 2"><g id="Layer_1-2" data-name="Layer 1"><path class="cls-1" d="M90.56,73a9.77,9.77,0,0,1-6-1.66,5.4,5.4,0,0,1-1.94-4.43,5.91,5.91,0,0,1,1.82-4.14c1.47-1.35,3.66-1.88,6.51-1.58A17.25,17.25,0,0,0,93.69,61,.66.66,0,0,1,94,62.24a18.66,18.66,0,0,1-3.12.27c-2.52-.27-4.36.15-5.54,1.22a4.64,4.64,0,0,0-1.41,3.18,4.11,4.11,0,0,0,1.45,3.42c2.81,2.26,8.7,1,8.76,1a.67.67,0,0,1,.78.51.66.66,0,0,1-.5.78A21.11,21.11,0,0,1,90.56,73Z"/><path class="cls-1" d="M99.3,60.14A.65.65,0,0,1,99,58.93c.41-.25,9.86-6.09,6.48-16.83-3.31-10.48-12.72-10.78-12.82-10.78h-.15c-3.58-.15-15.33.49-16.35,14.94a.66.66,0,0,1-1.31-.09C75.69,33.76,84.54,29.69,92.53,30c.2,0,10.51.14,14.16,11.7,3.69,11.73-7,18.27-7,18.34A.72.72,0,0,1,99.3,60.14Z"/><path class="cls-1" d="M89.33,88.45a12.8,12.8,0,0,1-7.7-2.77.66.66,0,0,1,.86-1,11.54,11.54,0,0,0,6.84,2.46A14.72,14.72,0,0,0,97.09,85c.08,0,7.93-5.18,6.13-16l-.08-.47.42-.22c.13-.07,13.4-7.28,12.83-22.64S104,24.38,103.92,24.33a30.18,30.18,0,0,0-13-3.57,27,27,0,0,0-18.1,7.51c-4.71,4.61-7.09,10.65-7.09,18a.66.66,0,0,1-.66.65.65.65,0,0,1-.65-.65c0-7.66,2.51-14,7.48-18.89a28.26,28.26,0,0,1,19-7.88,30.85,30.85,0,0,1,13.58,3.72A26.31,26.31,0,0,1,117.7,45.6c.54,14.62-10.8,22.21-13.12,23.61a17.27,17.27,0,0,1-6.79,16.86A16.07,16.07,0,0,1,89.33,88.45Z"/><path class="cls-1" d="M120.8,19.24a.66.66,0,0,1-.46-1.12L138.27.19a.65.65,0,1,1,.92.93L121.27,19A.67.67,0,0,1,120.8,19.24Z"/><path class="cls-1" d="M156.3,43.73H131a.65.65,0,0,1-.65-.65.66.66,0,0,1,.65-.66H156.3a.66.66,0,0,1,.66.66A.65.65,0,0,1,156.3,43.73Z"/><path class="cls-1" d="M139.93,86.55a.66.66,0,0,1-.47-.19L121.14,68a.65.65,0,1,1,.92-.93l18.33,18.32a.67.67,0,0,1,0,.93A.65.65,0,0,1,139.93,86.55Z"/><polyline class="cls-2" points="0.4 64.52 6.11 64.52 9.13 58.63 11.26 69.43 15.91 50.59 19.43 79.98 25.71 38.78 31.74 87.52 37.52 52.09 42.54 75.71 49.07 44.81 55.04 83 59.38 57.37 61.64 64.16 67.16 64.16"/></g></g></svg>