<svg xmlns="http://www.w3.org/2000/svg" viewBox="0 0 72.95 122.56"><defs><style>.cls-1{fill:#231f20;}</style></defs><g id="Layer_2" data-name="Layer 2"><g id="Layer_1-2" data-name="Layer 1"><path class="cls-1" d="M62.43,49.08h0L44.1,49a.63.63,0,0,1-.62-.63V31a.63.63,0,0,1,.63-.63c7.47,0,18.69,4.82,19,18.1a.63.63,0,0,1-.18.45A.64.64,0,0,1,62.43,49.08ZM44.73,47.7l17.06.12c-.57-11.53-10.22-16-17.06-16.21Z"/><path class="cls-1" d="M40.9,70h-.74c-1.35,0-7.78-.24-12.24-4.7-5.26-5.26-6-9.49-6-13.28a18.9,18.9,0,0,1,4.95-11.91,19.85,19.85,0,0,1,13.46-5.55.62.62,0,0,1,.62.62V51.68H58a.64.64,0,0,1,.63.54c0,.27.77,6.69-5.21,12.67A17.13,17.13,0,0,1,40.9,70Zm-.48-1.25h.26A15.78,15.78,0,0,0,52.57,64a15.59,15.59,0,0,0,4.88-11.08H40.35a.63.63,0,0,1-.63-.63V35.8A18.58,18.58,0,0,0,27.78,41a17.49,17.49,0,0,0-4.59,11c0,3.52.68,7.46,5.62,12.4,4.35,4.35,10.77,4.35,11.5,4.33Z"/><path class="cls-1" d="M55,92.63H37.59a.64.64,0,0,1-.54-.31L26.33,74H9.46a.63.63,0,0,1,0-1.25H26.69a.63.63,0,0,1,.54.31L38,91.38H55a.63.63,0,0,1,0,1.25Z"/><path class="cls-1" d="M67.33,122.56H5.62A5.63,5.63,0,0,1,0,116.93V5.62A5.62,5.62,0,0,1,5.62,0H67.33A5.62,5.62,0,0,1,73,5.62V116.93A5.63,5.63,0,0,1,67.33,122.56ZM5.62,1.25A4.37,4.37,0,0,0,1.25,5.62V116.93a4.38,4.38,0,0,0,4.37,4.38H67.33a4.38,4.38,0,0,0,4.37-4.38V5.62a4.37,4.37,0,0,0-4.37-4.37Z"/><path class="cls-1" d="M46.5,9.22H25.13a.63.63,0,0,1,0-1.25H46.5a.63.63,0,0,1,0,1.25Z"/><path class="cls-1" d="M46.5,115.77H25.13a.63.63,0,0,1,0-1.25H46.5a.63.63,0,0,1,0,1.25Z"/><path class="cls-1" d="M72,17.08H.62a.63.63,0,0,1,0-1.25H72a.63.63,0,1,1,0,1.25Z"/><path class="cls-1" d="M72,106.69H.62a.63.63,0,0,1,0-1.25H72a.63.63,0,1,1,0,1.25Z"/></g></g></svg>